<?xml version="1.0" encoding="UTF-8"?>
<svg width="308px" height="308px" viewBox="0 0 308 308" version="1.1" xmlns="http://www.w3.org/2000/svg" xmlns:xlink="http://www.w3.org/1999/xlink">
    <title>1</title>
    <defs>
        <rect id="path-1" x="0" y="0" width="308" height="308"></rect>
        <ellipse id="path-3" cx="138" cy="112.5" rx="112" ry="110.5"></ellipse>
        <linearGradient x1="50%" y1="0%" x2="50%" y2="100%" id="linearGradient-5">
            <stop stop-color="#D1CFCF" offset="0%"></stop>
            <stop stop-color="#DBD9D9" offset="100%"></stop>
        </linearGradient>
        <linearGradient x1="57.3462702%" y1="0%" x2="57.3462702%" y2="100%" id="linearGradient-6">
            <stop stop-color="#C4C2C2" offset="0%"></stop>
            <stop stop-color="#CCCACA" stop-opacity="0.5" offset="100%"></stop>
        </linearGradient>
        <linearGradient x1="15.4579187%" y1="0%" x2="84.5420813%" y2="100%" id="linearGradient-7">
            <stop stop-color="#FA200C" offset="0%"></stop>
            <stop stop-color="#FA360C" offset="44.5925926%"></stop>
            <stop stop-color="#FA510C" offset="83.4074074%"></stop>
            <stop stop-color="#FA5C0C" offset="100%"></stop>
        </linearGradient>
        <filter x="-43.5%" y="-176.5%" width="187.0%" height="452.9%" filterUnits="objectBoundingBox" id="filter-8">
            <feGaussianBlur stdDeviation="10 0" in="SourceGraphic"></feGaussianBlur>
        </filter>
        <linearGradient x1="50%" y1="50%" x2="50%" y2="100%" id="linearGradient-9">
            <stop stop-color="#FFFFFF" offset="0%"></stop>
            <stop stop-color="#F5F2F2" offset="100%"></stop>
        </linearGradient>
        <linearGradient x1="50%" y1="100%" x2="50%" y2="3.061617e-15%" id="linearGradient-10">
            <stop stop-color="#E0DCDC" offset="0%"></stop>
            <stop stop-color="#E6E1E1" offset="100%"></stop>
        </linearGradient>
        <linearGradient x1="50%" y1="0%" x2="50%" y2="100%" id="linearGradient-11">
            <stop stop-color="#D1CFCF" offset="0%"></stop>
            <stop stop-color="#DBD9D9" offset="100%"></stop>
        </linearGradient>
        <linearGradient x1="50%" y1="50%" x2="50%" y2="100%" id="linearGradient-12">
            <stop stop-color="#FFFFFF" offset="0%"></stop>
            <stop stop-color="#F5F2F2" offset="100%"></stop>
        </linearGradient>
        <linearGradient x1="50%" y1="50%" x2="50%" y2="100%" id="linearGradient-13">
            <stop stop-color="#FFFFFF" offset="0%"></stop>
            <stop stop-color="#FAF7F7" offset="100%"></stop>
        </linearGradient>
        <linearGradient x1="64.7980218%" y1="31.4917093%" x2="24.1506554%" y2="100%" id="linearGradient-14">
            <stop stop-color="#FFFFFF" offset="0%"></stop>
            <stop stop-color="#F5F2F2" offset="100%"></stop>
        </linearGradient>
    </defs>
    <g id="二级弹层" stroke="none" stroke-width="1" fill="none" fill-rule="evenodd">
        <g id="结算页地址二级页/收货地址空状态" transform="translate(-221.000000, -466.000000)">
            <rect fill="#FFFFFF" x="0" y="0" width="750" height="1624"></rect>
            <rect id="bg" fill="#F5F5F5" x="0" y="0" width="750" height="2619"></rect>
            <g id="bg" transform="translate(0.000000, 176.000000)" fill="#FFFFFF">
                <path d="M24,0 L726,0 C739.254834,-2.4348735e-15 750,10.745166 750,24 L750,1424 C750,1437.25483 739.254834,1448 726,1448 L24,1448 C10.745166,1448 1.623249e-15,1437.25483 0,1424 L0,24 C-1.623249e-15,10.745166 10.745166,2.4348735e-15 24,0 Z" id="矩形"></path>
            </g>
            <g id="Combined-Shape-+-Group-5-+-Combined-Shape-+-Group-54-+-Group-7-蒙版" transform="translate(221.000000, 466.000000)">
                <mask id="mask-2" fill="white">
                    <use xlink:href="#path-1"></use>
                </mask>
                <g id="蒙版"></g>
                <g id="Group-5" mask="url(#mask-2)">
                    <g transform="translate(16.000000, 43.000000)">
                        <mask id="mask-4" fill="white">
                            <use xlink:href="#path-3"></use>
                        </mask>
                        <use id="Oval" stroke="none" fill="#F5F2F2" fill-rule="evenodd" xlink:href="#path-3"></use>
                        <g id="Group-4" stroke="none" stroke-width="1" fill="none" fill-rule="evenodd" mask="url(#mask-4)">
                            <g transform="translate(27.000000, 39.000000)">
                                <path d="M48,1 L112.68,1 C115.06587,1 117,2.93412988 117,5.32 L117,194 L117,194 L48,194 L48,1 Z" id="Rectangle" fill="#DBD9D9"></path>
                                <path d="M184.32,34 L242.68,34 C245.06587,34 247,35.9341299 247,38.32 L247,194 L247,194 L180,194 L180,38.32 C180,35.9341299 181.93413,34 184.32,34 Z" id="Rectangle" fill="#DBD9D9"></path>
                                <path d="M91.68,1 C94.0658701,1 96,2.93412988 96,5.32 L96,56 L171,56 L171,186 L96,186 L96,192 L1,192 L1,88.32 C1,85.9341299 2.93412988,84 5.32,84 L26.999,84 L27,5.32 C27,2.93412988 28.9341299,1 31.32,1 L91.68,1 Z M203.68,34 C206.06587,34 208,35.9341299 208,38.32 L208,192 L171,192 L171,38.32 C171,35.9341299 172.93413,34 175.32,34 L203.68,34 Z" id="Combined-Shape" fill="url(#linearGradient-5)"></path>
                                <path d="M80,106 L80,119 L39,119 L39,106 L80,106 Z M203,105 L203,113 L177,113 L177,105 L203,105 Z M203,81 L203,89 L177,89 L177,81 L203,81 Z M80,65 L80,78 L39,78 L39,65 L80,65 Z M203,58 L203,66 L177,66 L177,58 L203,58 Z M80,26 L80,39 L39,39 L39,26 L80,26 Z" id="Combined-Shape" fill="url(#linearGradient-6)"></path>
                            </g>
                        </g>
                    </g>
                </g>
                <path d="M218,195 C235.673112,195 250,209.488799 250,227.361638 C250,240.748289 241.223181,250.565944 227.434248,264.429108 C226.066053,265.804669 224.361336,267.64749 222.320099,269.957572 C222.163725,270.134541 221.99664,270.30175 221.819786,270.458256 C219.431837,272.571459 215.782932,272.348734 213.669729,269.960784 L213.669729,269.960784 L213.278108,269.519237 C211.340769,267.340023 209.715292,265.58825 208.401675,264.26392 C194.722127,250.47281 186,240.710217 186,227.361638 C186,209.488799 200.326888,195 218,195 Z M218.5,218 C213.253295,218 209,222.253295 209,227.5 C209,232.746705 213.253295,237 218.5,237 C223.746705,237 228,232.746705 228,227.5 C228,222.253295 223.746705,218 218.5,218 Z" id="Combined-Shape" fill="url(#linearGradient-7)" mask="url(#mask-2)"></path>
                <g id="Group-54" mask="url(#mask-2)">
                    <g transform="translate(29.000000, 114.000000)">
                        <ellipse id="Oval" stroke="none" fill="#E0DCDC" fill-rule="evenodd" filter="url(#filter-8)" cx="101.5" cy="162.5" rx="34.5" ry="8.5"></ellipse>
                        <path d="M117.467569,92 C117.467569,92 138.011074,116.452407 128.474382,136.417709 C128.474382,136.417709 127.774419,138.557256 125.598428,141.197272 L124.662306,152.793024 C125.581842,154.19991 125.952513,155.743204 125.625234,157.294551 C124.64441,161.970782 117.763834,164.398496 110.1276,163.946477 C106.336456,163.721474 103.363508,162.52151 101.317423,160.854522 C98.4820195,163.160744 93.4912123,164.263971 88.1276001,163.946477 C80.7263486,163.507216 76.4434625,159.352111 76.087486,155.260505 C76.0351955,155.861533 76.0063456,154.836011 76.0009362,152.183937 L76.0009362,150.088022 C76.0041236,148.082968 76.0154496,145.513172 76.0349143,142.378635 C72.9839003,139.226534 72.0249095,136.417709 72.0249095,136.417709 C71.1292995,134.542625 70.4990005,132.627964 70.0920776,130.697698 C68.4694344,130.197602 66.93592,129.399606 65.4915342,128.30371 C64.4961341,127.548472 63.7321905,126.636067 63.1997033,125.566494 L63.0601573,125.270922 C62.9142125,124.944112 63.060833,124.560868 63.3876432,124.414924 C63.5266095,124.352865 63.6829841,124.341695 63.8293605,124.38337 C65.0203548,124.722462 65.9591308,124.936917 66.6456884,125.026734 C68.0020503,125.204177 69.4955459,125.204177 69.50053,124.594956 C69.6367531,107.94409 83.031723,92 83.031723,92 L117.467569,92 Z" id="Combined-Shape" stroke="none" fill="url(#linearGradient-9)" fill-rule="evenodd"></path>
                        <path d="M104,161 C105.497793,159.976154 106.513338,158.707869 106.865627,157.214889 C107.241192,155.632449 106.815832,154.058224 105.760627,152.62314 C106.028468,149.673007 106.259169,147.13196 106.452728,145" id="Path" stroke="#E0DEDE" stroke-width="3.2" fill="none" stroke-linecap="round" stroke-linejoin="round"></path>
                        <path d="M95,144 C97.77879,144.666667 100.496773,145 103.153949,145 C105.811125,145 108.426476,144.333333 111,143" id="Path-6" stroke="#E0DEDE" stroke-width="3.2" fill="none" stroke-linecap="round" stroke-linejoin="round"></path>
                        <path d="M147,20.2177112 C147,20.2177112 157.299013,10.0872391 160.957077,7.61623206 C164.622767,5.14623509 170.338905,3.6640349 176.973245,17.497735 C183.60606,31.3314351 193.595447,39.4847986 196.645444,42.2057849 C199.699508,44.9247511 201.698605,53.216487 190.013138,58.2625327 C177.428279,63.6984451 161.18434,55.7930408 154.092933,42.7001883 L147,20.2177112 Z" id="Fill-20" stroke="none" fill="#FFFFFF" fill-rule="evenodd"></path>
                        <path d="M79.8832684,143.367313 C77.344485,138.752017 76.8974568,131.874757 79.5640502,124.212056 C80.1481604,122.533067 80.7948428,120.900213 81.4941678,119.32257" id="Path" stroke="#E0DEDE" stroke-width="3.2" fill="none" stroke-linecap="round" stroke-linejoin="round" transform="translate(79.627643, 131.344941) rotate(-30.000000) translate(-79.627643, -131.344941) "></path>
                        <g id="Group-6" stroke="none" stroke-width="1" fill="none" fill-rule="evenodd" transform="translate(86.000000, 107.000000)">
                            <path d="M17.32,0 L53.68,0 C56.0658701,3.79987947e-15 58,1.93412988 58,4.32 L58,34.68 C58,37.0658701 56.0658701,39 53.68,39 L17.32,39 C14.9341299,39 13,37.0658701 13,34.68 L13,4.32 C13,1.93412988 14.9341299,4.38277231e-16 17.32,0 Z" id="Rectangle" fill="url(#linearGradient-10)"></path>
                            <path d="M4.32,0 L40.68,0 C43.0658701,3.79987947e-15 45,1.93412988 45,4.32 L45,34.68 C45,37.0658701 43.0658701,39 40.68,39 L4.32,39 C1.93412988,39 2.9218482e-16,37.0658701 0,34.68 L0,4.32 C-2.9218482e-16,1.93412988 1.93412988,4.38277231e-16 4.32,0 Z" id="Rectangle" fill="url(#linearGradient-11)"></path>
                        </g>
                        <path d="M103.309172,92.7814742 C101.703607,91.6503579 100.319429,88.8347953 95.6252155,90.2257627 C89.5406741,92.0299442 80.1573714,101.237333 74.8615195,116.356588 C69.5641301,131.475844 76.7837897,140.228748 84.902832,138.548887 C94.7119962,136.516954 94.5146957,125.055994 96.3841817,117.609478 C98.4632674,109.336024 104.055839,93.3541656 104.055839,93.3541656 C104.055839,93.3541656 107.861944,93.0978811 103.309172,92.7814742" id="Fill-3" stroke="none" fill="url(#linearGradient-12)" fill-rule="evenodd" transform="translate(89.297884, 114.300996) rotate(-30.000000) translate(-89.297884, -114.300996) "></path>
                        <path d="M81,86.0325006 L81,91.350473 C81,91.350473 84.120609,98 100.00076,98 C115.880911,98 119,91.3470774 119,91.3470774 L119,86 C112.668609,87.3325249 106.299729,88.0067912 99.924771,88.0067912 C93.5959126,88.0067912 87.2842783,87.3475625 81,86.0325006" id="Fill-13" stroke="none" fill="#E1251B" fill-rule="evenodd"></path>
                        <path d="M100.001027,0 C92.1421596,0 67.1845287,1.47675843 45.9241914,13.2862991 C24.6638541,25.0988576 32.5206673,50.6906386 38.5280633,60.5330123 C44.5375137,70.3789068 64.4106597,94 100.001027,94 C135.589854,94 155.465054,70.3789068 161.471937,60.5330123 C167.479333,50.6906386 175.336146,25.0988576 154.075809,13.2862991 C132.817012,1.47675843 107.858354,0 100.001027,0 Z" id="Fill-15" stroke="none" fill="url(#linearGradient-13)" fill-rule="evenodd"></path>
                        <path d="M52,20.2177112 C52,20.2177112 41.7063574,10.0872391 38.0458194,7.61623206 C34.3873152,5.14623509 28.6638791,3.6640349 22.0287407,17.497735 C15.3936023,31.3314351 5.40402994,39.4847986 2.3511239,42.2057849 C-0.699239756,44.9247511 -2.69705252,53.216487 8.98829622,58.2625327 C21.5746692,63.6984451 37.8175124,55.7930408 44.9072308,42.7001883 L52,20.2177112 Z" id="Fill-17" stroke="none" fill="url(#linearGradient-14)" fill-rule="evenodd"></path>
                        <path d="M36,54 C40.5990228,51.0666667 43.5990228,47.4 45,43" id="Path-3" stroke="#E0DEDE" stroke-width="3.2" fill="none" stroke-linecap="round" stroke-linejoin="round"></path>
                        <path d="M164.389431,51.831235 C167.206698,49.5506771 169.637237,47.0468418 171.681049,44.3197291" id="Path-3" stroke="#E0DEDE" stroke-width="3.2" fill="none" stroke-linecap="round" stroke-linejoin="round" transform="translate(168.035240, 48.075482) rotate(-30.000000) translate(-168.035240, -48.075482) "></path>
                        <path d="M137,32.5031444 C137,35.5415805 127.797501,38 116.447943,38 C105.09372,38 97,35.5415805 97,32.5031444 C97,29.461322 105.09372,27 116.447943,27 C127.797501,27 137,29.461322 137,32.5031444" id="Fill-22" stroke="none" fill="#333232" fill-rule="evenodd"></path>
                        <ellipse id="Oval" stroke="none" fill="#333232" fill-rule="evenodd" transform="translate(73.023844, 26.073295) rotate(-330.000000) translate(-73.023844, -26.073295) " cx="73.0238437" cy="26.073295" rx="4.09235922" ry="6.95951338"></ellipse>
                        <ellipse id="Oval" stroke="none" fill="#333232" fill-rule="evenodd" transform="translate(151.010081, 25.178912) scale(-1, 1) rotate(-330.000000) translate(-151.010081, -25.178912) " cx="151.010081" cy="25.1789116" rx="3.23085404" ry="6.42415861"></ellipse>
                        <path d="M116,52.3354097 L118.600364,51.4880172 C119.043484,51.3436156 119.523122,51.3585004 119.956435,51.5301007 L123,52.7354097 L123,52.7354097" id="Path-4" stroke="#4D4B4B" stroke-width="3.2" fill="none" opacity="0.5" stroke-linecap="round" stroke-linejoin="round"></path>
                    </g>
                </g>
                <g id="Group-7" mask="url(#mask-2)">
                    <g transform="translate(27.000000, 43.000000)">
                        <rect id="Rectangle" fill="#F2F2F2" opacity="0.699999988" x="13" y="34" width="66" height="20" rx="10"></rect>
                        <circle id="Oval" fill="#F2F2F2" cx="6" cy="66" r="5"></circle>
                        <rect id="Rectangle" fill="#EBEBEB" opacity="0.699999988" x="167" y="14" width="40" height="18" rx="9"></rect>
                    </g>
                </g>
            </g>
        </g>
    </g>
</svg>