<?xml version="1.0" encoding="UTF-8"?>
<svg width="28px" height="28px" viewBox="0 0 28 28" version="1.1" xmlns="http://www.w3.org/2000/svg" xmlns:xlink="http://www.w3.org/1999/xlink">
    <title>ic_店铺@1x</title>
    <g id="页面-1" stroke="none" stroke-width="1" fill="none" fill-rule="evenodd">
        <g id="切图" transform="translate(-284.000000, -74.000000)">
            <g id="编组" transform="translate(284.000000, 74.000000)">
                <g></g>
                <g id="编组-6" transform="translate(0.500000, 2.000000)" stroke="#1A1A1A" stroke-width="3">
                    <path d="M17.4378598,13.0457502 C16.4149729,13.9201468 14.9440733,14.5431651 13.4771776,14.5431651 C12.0509212,14.5431651 10.5960106,13.8784087 9.57643148,13.0457502" id="路径" stroke-linecap="round"></path>
                    <path d="M22.889416,14.2962749 C22.539977,14.3632897 22.1852825,14.3984895 21.8313855,14.3984895 C20.3378153,14.3984895 18.8265663,13.7715326 17.758867,12.7720522" id="路径" stroke-linecap="round"></path>
                    <path d="M9.2183997,12.6857143 C8.14723656,13.735295 6.59608431,14.3984895 5.0599569,14.3984895 C4.72479704,14.3984895 4.38874694,14.3669184 4.0570185,14.3066512" id="路径" stroke-linecap="round"></path>
                    <path d="M0.97717765,11.2066655 L2.15312514,5.09728968 C2.67001696,2.3405333 5.41992662,0.482865471 8.22472303,0.482865471 L18.8960433,0.482865471 C21.6351172,0.482865471 24.0046433,2.25007972 24.5899749,4.92588105 L25.9771776,11.2066655" id="路径"></path>
                    <path d="M0.97717765,11.2066655 C0.97717765,12.9108584 2.35869899,14.2923798 4.06289194,14.2923798" id="路径" stroke-linecap="round"></path>
                    <path d="M22.8914634,14.2923798 C24.5956563,14.2923798 25.9771776,12.9108584 25.9771776,11.2066655" id="路径" stroke-linecap="round"></path>
                    <path d="M24.0154109,14.0571429 L24.0154109,19.7346364 C24.0154109,21.8175389 22.3268848,23.506065 20.2439824,23.506065 L6.77695306,23.5220955 C4.69405057,23.5220955 3.00552448,21.8335694 3.00552448,19.7506669 L3.00552448,14.0731734" id="路径"></path>
                </g>
            </g>
        </g>
    </g>
</svg>